<svg xmlns="http://www.w3.org/2000/svg" viewBox="0 0 64 64" width="64" height="64">
  <!-- Clipboard -->
  <rect x="14" y="12" width="36" height="46" rx="3" fill="#3b82f6" stroke="#2563eb" stroke-width="2"/>
  
  <!-- Clipboard clip -->
  <rect x="24" y="8" width="16" height="8" rx="2" fill="#2563eb"/>
  
  <!-- Checklist items -->
  <!-- Item 1 - Checked -->
  <rect x="20" y="22" width="5" height="5" rx="1" fill="#ffffff" opacity="0.9"/>
  <path d="M 21.5 24.5 L 23 26 L 24.5 23" stroke="#3b82f6" stroke-width="1.5" fill="none" stroke-linecap="round" stroke-linejoin="round"/>
  <line x1="28" y1="24.5" x2="44" y2="24.5" stroke="#ffffff" stroke-width="2" stroke-linecap="round" opacity="0.9"/>
  
  <!-- Item 2 - Checked -->
  <rect x="20" y="32" width="5" height="5" rx="1" fill="#ffffff" opacity="0.9"/>
  <path d="M 21.5 34.5 L 23 36 L 24.5 33" stroke="#3b82f6" stroke-width="1.5" fill="none" stroke-linecap="round" stroke-linejoin="round"/>
  <line x1="28" y1="34.5" x2="44" y2="34.5" stroke="#ffffff" stroke-width="2" stroke-linecap="round" opacity="0.9"/>
  
  <!-- Item 3 - Unchecked -->
  <rect x="20" y="42" width="5" height="5" rx="1" fill="#ffffff" opacity="0.9"/>
  <line x1="28" y1="44.5" x2="44" y2="44.5" stroke="#ffffff" stroke-width="2" stroke-linecap="round" opacity="0.9"/>
  
  <!-- Item 4 - Unchecked -->
  <rect x="20" y="50" width="5" height="5" rx="1" fill="#ffffff" opacity="0.9"/>
  <line x1="28" y1="52.5" x2="38" y2="52.5" stroke="#ffffff" stroke-width="2" stroke-linecap="round" opacity="0.9"/>
</svg>
